HIERARCHY
ROOT Pelvis
{
	OFFSET 0 0 0
	CHANNELS 6 Xposition Yposition Zposition Xrotation Yrotation Zrotation 
	JOINT PelvisLeftUpperLeg
	{
		OFFSET        0        0 -9.19895
		CHANNELS 3 Xrotation Yrotation Zrotation 
		JOINT LeftUpperLegLeftLowerLeg
		{
			OFFSET -0.890644  -45.8097  0.343891
			CHANNELS 3 Xrotation Yrotation Zrotation 
			JOINT LeftLowerLegLeftFoot
			{
				OFFSET -1.29749 -44.4256        0
				CHANNELS 3 Xrotation Yrotation Zrotation 
				End Site
{
					OFFSET  15.3609   1.8433 -4.30104
				}
			}
		}
	}
	JOINT PelvisRightUpperLeg
	{
		OFFSET       0       0 9.19895
		CHANNELS 3 Xrotation Yrotation Zrotation 
		JOINT RightUpperLegRightLowerLeg
		{
			OFFSET -0.890644  -45.8097 -0.343891
			CHANNELS 3 Xrotation Yrotation Zrotation 
			JOINT RightLowerLegRightFoot
			{
				OFFSET -1.29749 -44.4256        0
				CHANNELS 3 Xrotation Yrotation Zrotation 
				End Site
{
					OFFSET 15.3609  1.8433 4.30104
				}
			}
		}
	}
	JOINT PelvisThorax
	{
		OFFSET -2.57589  15.8963        0
		CHANNELS 3 Xrotation Yrotation Zrotation 
		JOINT ThoraxLeftUpperArm
		{
			OFFSET -11.5193  39.6182  -18.732
			CHANNELS 3 Xrotation Yrotation Zrotation 
			JOINT LeftUpperArmLeftForearm
			{
				OFFSET  1.36806  -29.796 0.998672
				CHANNELS 3 Xrotation Yrotation Zrotation 
				JOINT LeftForearmLeftHand
				{
					OFFSET 0.077273 -24.5989 0.518175
					CHANNELS 3 Xrotation Yrotation Zrotation 
					End Site
{
						OFFSET        0 -10.1353        0
					}
				}
			}
		}
		JOINT ThoraxRightUpperArm
		{
			OFFSET -11.5193  39.6182   18.732
			CHANNELS 3 Xrotation Yrotation Zrotation 
			JOINT RightUpperArmRightForearm
			{
				OFFSET   1.36806   -29.796 -0.998672
				CHANNELS 3 Xrotation Yrotation Zrotation 
				JOINT RightForearmRightHand
				{
					OFFSET  0.077273  -24.5989 -0.518175
					CHANNELS 3 Xrotation Yrotation Zrotation 
					End Site
{
						OFFSET        0 -10.1353        0
					}
				}
			}
		}
		JOINT ThoraxHead
		{
			OFFSET      -16.016      54.2047 -1.15196e-17
			CHANNELS 3 Xrotation Yrotation Zrotation 
			End Site
{
				OFFSET       0 11.9494       0
			}
		}
	}
}
MOTION
Frames: 29
Frame Time: 0.01
106.247 95.9655 -7.74383 -67.5062 82.7488 65.55 9.41879 3.82166 -4.79894 -5.93422 0.941885 -12.8949 -7.64967 34.5189 15.6594 8.51422 -4.92562 12.9958 3.09024 2.98914 -8.17538 0.905267 -21.3853 -2.75505 4.85727 -7.71099 -32.727 -8.71125 30.8914 32.527 -5.47225 -26.1851 22.7354 11.2859 -14.9728 6.81324 -6.58928 -27.3674 30.6592 -11.3731 33.111 62.0404 -19.5472 24.5048 9.57689 -7.94737 18.3888 48.5046 
105.914 95.9055 -6.6378 -72.7291 83.3428 70.3044 8.29563 4.95751 -4.27599 -5.1382 -0.113544 -10.9572 -5.92473 34.8258 14.9004 8.13144 -6.41535 14.8787 3.23002 2.88794 -9.65039 2.74004 -20.7146 -2.05511 4.41192 -7.03534 -32.8934 -8.04634 29.3081 33.3173 -5.68546 -26.2195 23.0511 11.4561 -14.9263 6.78953 -5.76366 -27.2012 30.1663 -11.3318 34.7073 58.2971 -19.2423 23.324 9.71235 -7.24126 17.0349 49.2568 
105.591 95.9022 -5.49005 -78.4003 84.0003 75.5658 7.05458 5.05087 -3.70691 -4.25697 -0.292988 -9.39575 -4.27609 35.1811 14.1549 7.45624 -7.28016 16.8754 3.2387 1.56275 -11.4466 5.0143 -19.5039 -1.06559 3.54877 -7.3408 -33.4418 -7.85932 28.7182 34.4474 -5.92258 -26.3062 23.4996 11.8035 -14.8026 6.80796 -5.05708 -26.0542 30.221 -11.6178 36.1229 55.052 -18.4523 22.8296 9.86399 -6.92805 16.6686 50.3615 
105.238 95.94 -4.3515 -84.047 84.672 81.3009 6.15061 4.16473 -3.59184 -4.10419 -0.399966 -7.8899 -2.90288 35.6294 13.3317 5.81312 -6.56915 18.5359 3.43916 -1.55549 -13.4886 7.24635 -18.3285 -0.10684 2.57511 -7.23984 -35.2441 -7.74106 27.7212 36.232 -6.19685 -26.4225 24.0473 12.2376 -14.5946 6.79989 -3.50715 -25.2126 31.0566 -12.9911 37.4577 52.9307 -17.4312 23.0135 9.99178 -6.6423 15.8962 52.0938 
104.873 95.9194 -3.21514 -91.0368 85.2844 88.6168 5.66846 3.28022 -3.82531 -4.40903 -0.872199 -6.52892 -2.20567 35.8866 12.6468 3.56841 -5.29443 20.0011 3.61098 -6.01785 -15.889 9.71095 -16.9586 1.0263 1.77383 -7.04314 -36.4994 -7.22548 26.599 37.0104 -6.37363 -26.6229 24.8166 12.5578 -14.4345 6.69125 -2.52262 -23.9578 30.7872 -14.286 37.8839 51.1688 -16.5992 23.7051 9.91267 -6.24337 15.0469 52.9079 
104.587 95.8384 -1.38676 -99.3327 85.8887 97.5014 5.35096 2.63587 -4.42116 -4.84734 -0.98943 -5.30236 -2.27926 35.4447 12.0775 0.914106 -3.59326 21.2217 4.06287 -10.9816 -18.4266 11.4388 -16.199 2.30473 0.81052 -7.16646 -37.7239 -6.81106 26.0382 37.4803 -6.50558 -27.1194 25.8242 12.6998 -14.4286 6.54559 -1.5936 -22.6984 30.4065 -14.6868 38.1922 49.0768 -16.72 23.8576 10.0307 -5.98323 14.5752 53.3717 
104.185 95.7168 0.0349403 -109.708 86.5297 108.478 4.88971 2.99977 -5.17966 -5.1675 -1.90727 -4.14714 -2.29633 35.0929 11.3081 -1.94568 -2.31585 22.0993 4.55509 -15.4013 -20.7775 11.8081 -15.9255 3.55394 -0.287208 -7.00874 -39.1225 -6.4645 25.4692 38.0829 -6.57477 -27.7365 27.0378 12.6169 -14.7312 6.53443 -0.414861 -22.0954 30.2903 -14.1937 38.2464 46.7947 -17.1722 23.686 10.382 -5.66509 13.9281 53.9039 
103.768 95.6243 1.19662 -120.629 87.1292 119.968 4.06109 3.95629 -5.93331 -5.10255 -2.94585 -2.97201 -1.95981 34.6502 10.2764 -4.18212 -1.58719 22.5008 5.03154 -18.1286 -22.8256 11.3816 -17.3802 5.12108 -1.4418 -6.73212 -40.9391 -6.45128 25.3061 39.2107 -6.74871 -28.542 28.2189 12.5584 -15.0773 6.62253 0.965389 -21.4083 30.7858 -13.4496 37.9372 44.428 -17.5451 23.2904 10.7467 -5.49136 13.404 54.8432 
103.374 95.6157 2.14823 -129.124 87.4781 129.186 3.27649 4.61488 -6.87193 -4.75293 -3.77829 -1.81234 -1.81988 34.5323 9.27322 -5.51993 -1.60799 22.2463 5.03747 -19.1049 -24.67 10.1082 -19.0443 6.12608 -2.38766 -6.37079 -43.3546 -6.78538 25.5427 40.8673 -7.03869 -29.5376 29.3621 12.5295 -15.4651 6.81411 2.52823 -20.6075 31.8756 -12.5164 37.2614 42.0302 -17.8225 22.6652 11.1259 -5.44966 12.994 56.15 
103.034 95.6133 2.86136 -135.097 87.6219 135.757 2.79885 4.26361 -7.79151 -4.55758 -3.46701 -0.62569 -1.71126 34.3007 8.46715 -6.67574 -1.6547 21.9632 5.11065 -19.7388 -26.61 8.87349 -20.4828 7.04596 -2.82662 -6.18483 -43.945 -6.88751 26.2128 40.6727 -7.17311 -30.6901 30.5386 12.7802 -15.774 7.12717 3.30264 -20.0375 31.4 -12.0666 36.7731 40.0471 -18.062 22.1551 11.4837 -5.44197 12.8141 55.6145 
102.801 95.6288 3.33481 -138.318 87.6902 139.59 2.67125 3.37384 -8.66787 -4.7222 -2.46727 0.41915 -1.68776 33.8378 7.79258 -7.74904 -1.17251 21.6806 5.28146 -20.1353 -28.5239 7.98951 -21.7138 7.57246 -3.16206 -6.33841 -44.1942 -7.2199 27.3136 39.9619 -7.1002 -31.785 31.8393 13.0916 -15.9852 7.43321 3.48538 -19.0798 30.5346 -11.7403 36.0324 38.3168 -18.4693 21.8712 11.892 -5.64007 12.9855 54.6432 
102.606 95.6372 3.66147 -140.798 87.6999 142.618 2.50784 2.38203 -9.34921 -4.89992 -1.87218 1.31815 -1.3056 34.0877 7.05366 -9.02012 -0.0522394 21.4265 5.52176 -20.8546 -30.3452 7.11414 -22.6198 7.74635 -3.47288 -6.95409 -43.9026 -7.6046 28.8916 38.5943 -7.05027 -32.5833 33.112 13.4385 -16.2239 7.79414 2.70397 -17.5863 29.2274 -10.9999 34.8975 36.4441 -19.0881 21.6581 12.3061 -6.03806 13.5518 53.1963 
102.446 95.6323 3.90448 -142.145 87.6583 144.393 2.20572 1.41523 -9.62287 -4.97956 -1.60946 1.69403 -0.833684 34.8199 6.509 -10.083 1.10525 21.1789 5.69982 -21.3132 -31.911 6.00702 -23.2142 7.11284 -3.55569 -7.43471 -43.1742 -7.57171 30.3501 36.7294 -7.17618 -33.1733 34.2823 13.8106 -16.1048 8.05167 1.42702 -15.2709 27.5647 -10.6432 32.7127 34.864 -19.3862 21.3463 12.5152 -6.39873 13.9919 51.4479 
102.344 95.6213 4.10606 -143.904 87.5915 146.396 1.95924 0.918408 -9.52021 -4.93844 -1.52964 1.54183 -0.682522 35.1913 6.29186 -10.9291 2.18455 20.9613 5.89171 -21.3025 -33.1243 5.24568 -23.6427 5.95586 -3.66681 -7.89373 -42.5476 -7.70074 31.786 35.059 -7.12841 -33.8286 35.4511 14.3096 -15.9256 8.43813 0.867784 -14.3506 26.2609 -10.5872 31.9725 34.3075 -19.5536 21.3792 12.6856 -6.7469 14.4518 50.0943 
102.309 95.6247 4.29739 -146.144 87.5153 148.77 1.89465 0.988104 -9.262 -4.9756 -1.93697 1.1746 -0.743876 35.4842 6.32051 -11.7399 3.38154 20.7746 6.18459 -21.3979 -33.9288 4.75057 -24.1534 5.41784 -3.70623 -8.13766 -42.0981 -7.62081 33.1189 33.8082 -7.34712 -34.5426 36.2378 14.8889 -15.7302 8.82451 0.708163 -14.2599 25.2059 -10.8641 31.9369 34.4697 -19.7635 21.4371 12.8073 -7.05294 14.6846 49.1425 
102.338 95.6482 4.5111 -148.861 87.4146 151.503 2.01625 1.17546 -8.85947 -5.25459 -2.65091 0.753175 -0.816497 35.9814 6.34942 -12.2855 4.67248 20.6416 5.9494 -21.4775 -34.2826 4.2369 -24.5393 4.92425 -3.74626 -8.39091 -41.7831 -7.61138 34.3149 32.7979 -7.30493 -35.3308 36.9961 15.4319 -15.4854 9.19778 0.483539 -14.5877 24.316 -11.2213 32.2385 35.1122 -20.0915 21.3735 12.9736 -7.39691 14.8798 48.5325 
102.427 95.6921 4.68996 -151.523 87.2962 154.036 2.14089 1.39 -8.31766 -5.45838 -3.21325 0.109642 -1.22455 36.2229 6.69834 -12.4797 5.5252 20.4268 5.55792 -21.0647 -34.1267 3.72503 -24.7976 4.5376 -3.70475 -8.58836 -41.3994 -7.43745 35.4863 31.7644 -7.29749 -36.1601 37.7179 15.8737 -15.483 9.46217 0.263617 -15.2655 23.5058 -11.5989 32.5863 35.9865 -20.7695 21.1529 13.2962 -7.70346 14.9693 48.1063 
102.611 95.7557 4.85144 -152.509 87.2131 154.706 2.45893 1.90732 -7.53555 -5.69252 -3.70753 -0.739555 -1.89681 36.06 7.21298 -12.4169 5.9357 20.2385 5.42636 -20.1031 -33.2603 3.11895 -25.2567 4.24181 -3.5643 -8.68364 -40.9619 -7.10592 36.4789 30.6549 -7.17573 -36.8375 38.4841 16.1537 -15.5774 9.66003 0.136897 -16.2913 22.8013 -11.9827 33.0157 37.0627 -21.4584 20.8559 13.5868 -7.97669 15.0255 47.8949 
102.836 95.8376 5.01903 -152.041 87.2288 153.767 2.59834 2.34475 -6.44116 -5.83786 -4.12724 -1.77227 -2.3579 36.0048 7.68162 -12.3079 6.21302 20.1688 5.07178 -18.9751 -32.0972 2.92457 -25.4086 4.0339 -3.35722 -8.60556 -40.4849 -6.63951 37.2292 29.5526 -7.01017 -37.1608 39.1973 16.1444 -15.6783 9.73514 -0.0884469 -17.3363 22.1863 -12.116 33.0038 38.0542 -22.0237 20.538 13.7684 -8.1819 15.0092 47.8349 
103.061 95.9428 5.16384 -150.307 87.3932 151.548 2.78975 3.86852 -5.44605 -5.95689 -5.69351 -2.96725 -2.99386 36.2003 8.41906 -12.1174 6.26458 20.0768 4.61728 -17.4865 -30.6194 2.59488 -25.1296 3.46729 -3.19971 -8.48159 -40.0533 -6.1918 37.9604 28.3925 -6.76617 -37.253 39.9272 16.0159 -15.7342 9.77008 -0.51033 -18.1038 21.6072 -12.1523 32.566 38.9628 -22.4166 20.2143 13.8898 -8.38942 15.0871 47.8409 
103.26 96.041 5.27015 -150.115 87.6144 150.787 2.60118 4.03418 -4.20644 -5.86355 -5.815 -4.17619 -3.56241 36.2345 9.1093 -11.8088 5.87767 20.0812 4.33265 -15.2937 -28.9631 2.1102 -24.9192 2.61425 -3.09166 -8.35375 -39.4233 -5.50685 38.6715 27.0431 -6.60177 -37.2724 40.497 15.9797 -15.6402 9.80078 -1.15867 -18.7296 20.9682 -11.9346 31.8201 39.5856 -22.8357 19.877 14.0164 -8.57756 15.1327 47.8062 
103.482 96.127 5.37009 -145.624 87.9094 145.712 2.46557 3.25388 -2.84028 -5.78465 -4.87502 -5.43348 -3.96392 36.3138 9.73457 -11.4902 5.51729 20.2822 4.20176 -12.9163 -27.4464 1.82893 -24.6786 1.8124 -2.96602 -8.35972 -38.7662 -4.85624 39.8681 25.7887 -6.66042 -37.482 40.8299 16.0124 -15.5653 9.834 -1.97189 -18.9148 20.3191 -11.6299 30.7885 40.1003 -23.46 19.5392 14.0907 -8.8018 15.4066 47.9818 
103.698 96.1965 5.42903 -135.914 88.2271 135.496 2.52889 3.04242 -1.72666 -5.82264 -4.52201 -6.63423 -4.19241 36.6207 10.36 -11.2392 5.07174 20.472 4.32719 -10.4743 -25.89 1.67836 -24.4825 1.00272 -2.82701 -8.45394 -38.0418 -4.12714 41.0889 24.3884 -6.63566 -37.4974 41.0482 16.0933 -15.5344 9.89866 -2.78633 -19.0877 19.6349 -11.507 29.9411 40.6647 -23.9948 19.1464 14.0758 -9.05226 15.909 48.1342 
103.893 96.2639 5.40997 -118.598 88.4446 117.939 2.52786 2.52383 -1.1475 -5.59578 -3.88886 -7.29354 -4.20303 37.0789 10.6979 -10.8151 4.73036 20.4446 4.1695 -8.43902 -24.3186 1.73705 -23.9954 0.0551484 -2.65209 -8.58796 -37.7151 -3.70891 42.4243 23.3129 -6.61328 -37.425 40.9924 16.0643 -15.6208 9.95379 -3.66693 -19.0894 19.2935 -11.1849 28.9028 40.9593 -24.1303 18.8617 13.866 -9.4752 16.5547 48.4477 
104.124 96.3125 5.29526 -95.3796 88.4537 94.6621 2.84912 2.11367 -0.991876 -5.65385 -3.22679 -7.70627 -3.92216 37.4076 10.886 -10.3226 4.51513 20.2106 4.03466 -6.92939 -22.5824 2.15886 -23.6862 -0.617929 -2.46483 -8.68442 -37.5599 -3.30527 43.6099 22.2561 -6.47673 -37.0689 40.7483 15.9028 -15.6668 10.006 -4.55721 -19.082 19.0415 -10.7008 27.7277 41.0717 -23.9542 18.6726 13.5844 -9.95028 17.3055 48.6287 
104.4 96.3446 5.15697 -71.3 88.1793 70.5471 3.15021 1.47441 -0.74071 -5.60852 -2.26115 -8.23106 -3.93908 37.7666 11.1963 -9.92842 4.49185 19.9472 3.81522 -6.18801 -20.9258 2.75781 -23.0277 -0.745012 -2.31903 -8.7688 -37.5147 -3.08892 44.8326 21.4733 -6.35247 -36.5256 40.1479 15.8105 -15.5824 10.0326 -5.39698 -18.976 19.0014 -10.3345 26.6 41.1755 -23.4215 18.5304 13.1256 -10.5343 18.2058 48.7763 
104.731 96.3802 5.00836 -53.9709 87.6 53.1499 3.54397 1.11657 -0.537145 -5.61777 -1.55282 -8.65702 -4.2172 38.167 11.5666 -9.49282 4.11837 19.7461 3.54628 -5.79066 -19.516 3.52256 -21.8985 -0.656834 -2.14007 -8.80185 -37.5431 -2.92147 46.0998 20.8994 -6.28505 -35.939 39.4462 15.6553 -15.5766 10.0276 -6.09952 -18.9202 19.12 -10.1354 25.6357 41.2702 -23.0165 18.5293 12.7998 -11.189 19.0723 48.8028 
105.077 96.4293 4.82781 -43.4586 86.9184 42.514 3.89434 0.921382 -0.511105 -5.60358 -0.942834 -8.89271 -4.48033 38.4768 11.9236 -8.49667 1.83011 19.5262 3.14866 -3.85225 -18.4297 4.31686 -20.6213 -0.985531 -1.99368 -8.88748 -37.6299 -2.81983 47.4171 20.5427 -6.26934 -35.314 38.642 15.438 -15.652 9.99392 -6.66414 -18.9171 19.3957 -10.1044 24.8366 41.3545 -22.7427 18.6692 12.6128 -11.871 19.9031 48.842 
105.423 96.4917 4.6268 -37.2053 86.2562 36.1572 4.22335 0.925948 -0.51205 -5.60677 -0.520571 -9.21175 -4.76905 38.7661 12.3708 -7.41029 -1.17368 19.3785 2.97377 -1.94229 -17.6965 4.71838 -19.1419 -1.34159 -1.89137 -9.10377 -37.8538 -2.79449 48.7918 20.4027 -6.30073 -34.6548 37.7371 15.1629 -15.8117 9.93411 -7.08878 -18.9669 19.8266 -10.2444 24.2083 41.4346 -22.5957 18.9481 12.5677 -12.5571 20.729 48.9697 
